<mxfile host="app.diagrams.net" modified="2021-05-07T17:20:38.273Z" agent="5.0 (Windows NT 10.0; Win64; x64) AppleWebKit/537.36 (KHTML, like Gecko) Chrome/90.0.4430.72 Safari/537.36" etag="JDO5hlj7yAUjUJuAmKZL" version="14.5.10" type="github">
  <diagram id="R2lEEEUBdFMjLlhIrx00" name="Page-1">
    <mxGraphModel dx="845" dy="509" grid="0" gridSize="10" guides="1" tooltips="1" connect="1" arrows="1" fold="1" page="1" pageScale="1" pageWidth="850" pageHeight="1100" math="0" shadow="0" extFonts="Permanent Marker^https://fonts.googleapis.com/css?family=Permanent+Marker">
      <root>
        <mxCell id="0" />
        <mxCell id="1" parent="0" />
        <mxCell id="HhnqYzRdFGTgvi9QtvTU-64" value="student" style="swimlane;fontStyle=0;childLayout=stackLayout;horizontal=1;startSize=26;fillColor=none;horizontalStack=0;resizeParent=1;resizeParentMax=0;resizeLast=0;collapsible=1;marginBottom=0;" vertex="1" parent="1">
          <mxGeometry x="25" y="128" width="217" height="213" as="geometry">
            <mxRectangle x="25" y="135" width="45" height="26" as="alternateBounds" />
          </mxGeometry>
        </mxCell>
        <mxCell id="HhnqYzRdFGTgvi9QtvTU-65" value="student_id           int (20) primary key" style="text;strokeColor=none;fillColor=none;align=left;verticalAlign=top;spacingLeft=4;spacingRight=4;overflow=hidden;rotatable=0;points=[[0,0.5],[1,0.5]];portConstraint=eastwest;" vertex="1" parent="HhnqYzRdFGTgvi9QtvTU-64">
          <mxGeometry y="26" width="217" height="26" as="geometry" />
        </mxCell>
        <mxCell id="HhnqYzRdFGTgvi9QtvTU-90" value="student_name     varchar(255)" style="text;strokeColor=none;fillColor=none;align=left;verticalAlign=top;spacingLeft=4;spacingRight=4;overflow=hidden;rotatable=0;points=[[0,0.5],[1,0.5]];portConstraint=eastwest;" vertex="1" parent="HhnqYzRdFGTgvi9QtvTU-64">
          <mxGeometry y="52" width="217" height="26" as="geometry" />
        </mxCell>
        <mxCell id="HhnqYzRdFGTgvi9QtvTU-91" value="student_account varchar(255)" style="text;strokeColor=none;fillColor=none;align=left;verticalAlign=top;spacingLeft=4;spacingRight=4;overflow=hidden;rotatable=0;points=[[0,0.5],[1,0.5]];portConstraint=eastwest;" vertex="1" parent="HhnqYzRdFGTgvi9QtvTU-64">
          <mxGeometry y="78" width="217" height="26" as="geometry" />
        </mxCell>
        <mxCell id="HhnqYzRdFGTgvi9QtvTU-92" value="student_gender   varchar(255)" style="text;strokeColor=none;fillColor=none;align=left;verticalAlign=top;spacingLeft=4;spacingRight=4;overflow=hidden;rotatable=0;points=[[0,0.5],[1,0.5]];portConstraint=eastwest;" vertex="1" parent="HhnqYzRdFGTgvi9QtvTU-64">
          <mxGeometry y="104" width="217" height="26" as="geometry" />
        </mxCell>
        <mxCell id="HhnqYzRdFGTgvi9QtvTU-93" value="student_email      varchar(255)" style="text;strokeColor=none;fillColor=none;align=left;verticalAlign=top;spacingLeft=4;spacingRight=4;overflow=hidden;rotatable=0;points=[[0,0.5],[1,0.5]];portConstraint=eastwest;" vertex="1" parent="HhnqYzRdFGTgvi9QtvTU-64">
          <mxGeometry y="130" width="217" height="26" as="geometry" />
        </mxCell>
        <mxCell id="HhnqYzRdFGTgvi9QtvTU-94" value="student_pwd        varchar(255)" style="text;strokeColor=none;fillColor=none;align=left;verticalAlign=top;spacingLeft=4;spacingRight=4;overflow=hidden;rotatable=0;points=[[0,0.5],[1,0.5]];portConstraint=eastwest;" vertex="1" parent="HhnqYzRdFGTgvi9QtvTU-64">
          <mxGeometry y="156" width="217" height="26" as="geometry" />
        </mxCell>
        <mxCell id="HhnqYzRdFGTgvi9QtvTU-66" value="class_id           int (20) foreign key" style="text;strokeColor=none;fillColor=none;align=left;verticalAlign=top;spacingLeft=4;spacingRight=4;overflow=hidden;rotatable=0;points=[[0,0.5],[1,0.5]];portConstraint=eastwest;" vertex="1" parent="HhnqYzRdFGTgvi9QtvTU-64">
          <mxGeometry y="182" width="217" height="31" as="geometry" />
        </mxCell>
        <mxCell id="HhnqYzRdFGTgvi9QtvTU-22" value="List" style="swimlane;fontStyle=0;childLayout=stackLayout;horizontal=1;startSize=26;fillColor=none;horizontalStack=0;resizeParent=1;resizeParentMax=0;resizeLast=0;collapsible=1;marginBottom=0;" vertex="1" parent="1">
          <mxGeometry x="527" y="194" width="140" height="104" as="geometry" />
        </mxCell>
        <mxCell id="HhnqYzRdFGTgvi9QtvTU-23" value="Item 1" style="text;strokeColor=none;fillColor=none;align=left;verticalAlign=top;spacingLeft=4;spacingRight=4;overflow=hidden;rotatable=0;points=[[0,0.5],[1,0.5]];portConstraint=eastwest;" vertex="1" parent="HhnqYzRdFGTgvi9QtvTU-22">
          <mxGeometry y="26" width="140" height="26" as="geometry" />
        </mxCell>
        <mxCell id="HhnqYzRdFGTgvi9QtvTU-24" value="Item 2" style="text;strokeColor=none;fillColor=none;align=left;verticalAlign=top;spacingLeft=4;spacingRight=4;overflow=hidden;rotatable=0;points=[[0,0.5],[1,0.5]];portConstraint=eastwest;" vertex="1" parent="HhnqYzRdFGTgvi9QtvTU-22">
          <mxGeometry y="52" width="140" height="26" as="geometry" />
        </mxCell>
        <mxCell id="HhnqYzRdFGTgvi9QtvTU-25" value="Item 3" style="text;strokeColor=none;fillColor=none;align=left;verticalAlign=top;spacingLeft=4;spacingRight=4;overflow=hidden;rotatable=0;points=[[0,0.5],[1,0.5]];portConstraint=eastwest;" vertex="1" parent="HhnqYzRdFGTgvi9QtvTU-22">
          <mxGeometry y="78" width="140" height="26" as="geometry" />
        </mxCell>
        <mxCell id="HhnqYzRdFGTgvi9QtvTU-75" value="" style="edgeStyle=orthogonalEdgeStyle;rounded=0;orthogonalLoop=1;jettySize=auto;html=1;" edge="1" parent="1" source="HhnqYzRdFGTgvi9QtvTU-26">
          <mxGeometry relative="1" as="geometry">
            <mxPoint x="153" y="619" as="targetPoint" />
          </mxGeometry>
        </mxCell>
        <mxCell id="HhnqYzRdFGTgvi9QtvTU-26" value="List" style="swimlane;fontStyle=0;childLayout=stackLayout;horizontal=1;startSize=21;fillColor=none;horizontalStack=0;resizeParent=1;resizeParentMax=0;resizeLast=0;collapsible=1;marginBottom=0;" vertex="1" parent="1">
          <mxGeometry x="32" y="353" width="140" height="99" as="geometry" />
        </mxCell>
        <mxCell id="HhnqYzRdFGTgvi9QtvTU-27" value="Item 1" style="text;strokeColor=none;fillColor=none;align=left;verticalAlign=top;spacingLeft=4;spacingRight=4;overflow=hidden;rotatable=0;points=[[0,0.5],[1,0.5]];portConstraint=eastwest;" vertex="1" parent="HhnqYzRdFGTgvi9QtvTU-26">
          <mxGeometry y="21" width="140" height="26" as="geometry" />
        </mxCell>
        <mxCell id="HhnqYzRdFGTgvi9QtvTU-28" value="Item 2" style="text;strokeColor=none;fillColor=none;align=left;verticalAlign=top;spacingLeft=4;spacingRight=4;overflow=hidden;rotatable=0;points=[[0,0.5],[1,0.5]];portConstraint=eastwest;" vertex="1" parent="HhnqYzRdFGTgvi9QtvTU-26">
          <mxGeometry y="47" width="140" height="26" as="geometry" />
        </mxCell>
        <mxCell id="HhnqYzRdFGTgvi9QtvTU-29" value="Item 3" style="text;strokeColor=none;fillColor=none;align=left;verticalAlign=top;spacingLeft=4;spacingRight=4;overflow=hidden;rotatable=0;points=[[0,0.5],[1,0.5]];portConstraint=eastwest;" vertex="1" parent="HhnqYzRdFGTgvi9QtvTU-26">
          <mxGeometry y="73" width="140" height="26" as="geometry" />
        </mxCell>
        <mxCell id="HhnqYzRdFGTgvi9QtvTU-30" value="List" style="swimlane;fontStyle=0;childLayout=stackLayout;horizontal=1;startSize=26;fillColor=none;horizontalStack=0;resizeParent=1;resizeParentMax=0;resizeLast=0;collapsible=1;marginBottom=0;" vertex="1" parent="1">
          <mxGeometry x="245" y="351" width="140" height="104" as="geometry" />
        </mxCell>
        <mxCell id="HhnqYzRdFGTgvi9QtvTU-31" value="Item 1" style="text;strokeColor=none;fillColor=none;align=left;verticalAlign=top;spacingLeft=4;spacingRight=4;overflow=hidden;rotatable=0;points=[[0,0.5],[1,0.5]];portConstraint=eastwest;" vertex="1" parent="HhnqYzRdFGTgvi9QtvTU-30">
          <mxGeometry y="26" width="140" height="26" as="geometry" />
        </mxCell>
        <mxCell id="HhnqYzRdFGTgvi9QtvTU-32" value="Item 2" style="text;strokeColor=none;fillColor=none;align=left;verticalAlign=top;spacingLeft=4;spacingRight=4;overflow=hidden;rotatable=0;points=[[0,0.5],[1,0.5]];portConstraint=eastwest;" vertex="1" parent="HhnqYzRdFGTgvi9QtvTU-30">
          <mxGeometry y="52" width="140" height="26" as="geometry" />
        </mxCell>
        <mxCell id="HhnqYzRdFGTgvi9QtvTU-33" value="Item 3" style="text;strokeColor=none;fillColor=none;align=left;verticalAlign=top;spacingLeft=4;spacingRight=4;overflow=hidden;rotatable=0;points=[[0,0.5],[1,0.5]];portConstraint=eastwest;" vertex="1" parent="HhnqYzRdFGTgvi9QtvTU-30">
          <mxGeometry y="78" width="140" height="26" as="geometry" />
        </mxCell>
        <mxCell id="HhnqYzRdFGTgvi9QtvTU-34" value="List" style="swimlane;fontStyle=0;childLayout=stackLayout;horizontal=1;startSize=26;fillColor=none;horizontalStack=0;resizeParent=1;resizeParentMax=0;resizeLast=0;collapsible=1;marginBottom=0;" vertex="1" parent="1">
          <mxGeometry x="425" y="349" width="140" height="104" as="geometry" />
        </mxCell>
        <mxCell id="HhnqYzRdFGTgvi9QtvTU-35" value="Item 1" style="text;strokeColor=none;fillColor=none;align=left;verticalAlign=top;spacingLeft=4;spacingRight=4;overflow=hidden;rotatable=0;points=[[0,0.5],[1,0.5]];portConstraint=eastwest;" vertex="1" parent="HhnqYzRdFGTgvi9QtvTU-34">
          <mxGeometry y="26" width="140" height="26" as="geometry" />
        </mxCell>
        <mxCell id="HhnqYzRdFGTgvi9QtvTU-36" value="Item 2" style="text;strokeColor=none;fillColor=none;align=left;verticalAlign=top;spacingLeft=4;spacingRight=4;overflow=hidden;rotatable=0;points=[[0,0.5],[1,0.5]];portConstraint=eastwest;" vertex="1" parent="HhnqYzRdFGTgvi9QtvTU-34">
          <mxGeometry y="52" width="140" height="26" as="geometry" />
        </mxCell>
        <mxCell id="HhnqYzRdFGTgvi9QtvTU-37" value="Item 3" style="text;strokeColor=none;fillColor=none;align=left;verticalAlign=top;spacingLeft=4;spacingRight=4;overflow=hidden;rotatable=0;points=[[0,0.5],[1,0.5]];portConstraint=eastwest;" vertex="1" parent="HhnqYzRdFGTgvi9QtvTU-34">
          <mxGeometry y="78" width="140" height="26" as="geometry" />
        </mxCell>
        <mxCell id="HhnqYzRdFGTgvi9QtvTU-38" value="List" style="swimlane;fontStyle=0;childLayout=stackLayout;horizontal=1;startSize=26;fillColor=none;horizontalStack=0;resizeParent=1;resizeParentMax=0;resizeLast=0;collapsible=1;marginBottom=0;" vertex="1" parent="1">
          <mxGeometry x="636" y="341" width="140" height="104" as="geometry" />
        </mxCell>
        <mxCell id="HhnqYzRdFGTgvi9QtvTU-39" value="Item 1" style="text;strokeColor=none;fillColor=none;align=left;verticalAlign=top;spacingLeft=4;spacingRight=4;overflow=hidden;rotatable=0;points=[[0,0.5],[1,0.5]];portConstraint=eastwest;" vertex="1" parent="HhnqYzRdFGTgvi9QtvTU-38">
          <mxGeometry y="26" width="140" height="26" as="geometry" />
        </mxCell>
        <mxCell id="HhnqYzRdFGTgvi9QtvTU-40" value="Item 2" style="text;strokeColor=none;fillColor=none;align=left;verticalAlign=top;spacingLeft=4;spacingRight=4;overflow=hidden;rotatable=0;points=[[0,0.5],[1,0.5]];portConstraint=eastwest;" vertex="1" parent="HhnqYzRdFGTgvi9QtvTU-38">
          <mxGeometry y="52" width="140" height="26" as="geometry" />
        </mxCell>
        <mxCell id="HhnqYzRdFGTgvi9QtvTU-41" value="Item 3" style="text;strokeColor=none;fillColor=none;align=left;verticalAlign=top;spacingLeft=4;spacingRight=4;overflow=hidden;rotatable=0;points=[[0,0.5],[1,0.5]];portConstraint=eastwest;" vertex="1" parent="HhnqYzRdFGTgvi9QtvTU-38">
          <mxGeometry y="78" width="140" height="26" as="geometry" />
        </mxCell>
        <mxCell id="HhnqYzRdFGTgvi9QtvTU-42" value="List" style="swimlane;fontStyle=0;childLayout=stackLayout;horizontal=1;startSize=26;fillColor=none;horizontalStack=0;resizeParent=1;resizeParentMax=0;resizeLast=0;collapsible=1;marginBottom=0;" vertex="1" parent="1">
          <mxGeometry x="83" y="515" width="140" height="104" as="geometry" />
        </mxCell>
        <mxCell id="HhnqYzRdFGTgvi9QtvTU-43" value="Item 1" style="text;strokeColor=none;fillColor=none;align=left;verticalAlign=top;spacingLeft=4;spacingRight=4;overflow=hidden;rotatable=0;points=[[0,0.5],[1,0.5]];portConstraint=eastwest;" vertex="1" parent="HhnqYzRdFGTgvi9QtvTU-42">
          <mxGeometry y="26" width="140" height="26" as="geometry" />
        </mxCell>
        <mxCell id="HhnqYzRdFGTgvi9QtvTU-44" value="Item 2" style="text;strokeColor=none;fillColor=none;align=left;verticalAlign=top;spacingLeft=4;spacingRight=4;overflow=hidden;rotatable=0;points=[[0,0.5],[1,0.5]];portConstraint=eastwest;" vertex="1" parent="HhnqYzRdFGTgvi9QtvTU-42">
          <mxGeometry y="52" width="140" height="26" as="geometry" />
        </mxCell>
        <mxCell id="HhnqYzRdFGTgvi9QtvTU-45" value="Item 3" style="text;strokeColor=none;fillColor=none;align=left;verticalAlign=top;spacingLeft=4;spacingRight=4;overflow=hidden;rotatable=0;points=[[0,0.5],[1,0.5]];portConstraint=eastwest;" vertex="1" parent="HhnqYzRdFGTgvi9QtvTU-42">
          <mxGeometry y="78" width="140" height="26" as="geometry" />
        </mxCell>
        <mxCell id="HhnqYzRdFGTgvi9QtvTU-46" value="List" style="swimlane;fontStyle=0;childLayout=stackLayout;horizontal=1;startSize=26;fillColor=none;horizontalStack=0;resizeParent=1;resizeParentMax=0;resizeLast=0;collapsible=1;marginBottom=0;" vertex="1" parent="1">
          <mxGeometry x="314" y="515" width="140" height="104" as="geometry" />
        </mxCell>
        <mxCell id="HhnqYzRdFGTgvi9QtvTU-47" value="Item 1" style="text;strokeColor=none;fillColor=none;align=left;verticalAlign=top;spacingLeft=4;spacingRight=4;overflow=hidden;rotatable=0;points=[[0,0.5],[1,0.5]];portConstraint=eastwest;" vertex="1" parent="HhnqYzRdFGTgvi9QtvTU-46">
          <mxGeometry y="26" width="140" height="26" as="geometry" />
        </mxCell>
        <mxCell id="HhnqYzRdFGTgvi9QtvTU-48" value="Item 2" style="text;strokeColor=none;fillColor=none;align=left;verticalAlign=top;spacingLeft=4;spacingRight=4;overflow=hidden;rotatable=0;points=[[0,0.5],[1,0.5]];portConstraint=eastwest;" vertex="1" parent="HhnqYzRdFGTgvi9QtvTU-46">
          <mxGeometry y="52" width="140" height="26" as="geometry" />
        </mxCell>
        <mxCell id="HhnqYzRdFGTgvi9QtvTU-49" value="Item 3" style="text;strokeColor=none;fillColor=none;align=left;verticalAlign=top;spacingLeft=4;spacingRight=4;overflow=hidden;rotatable=0;points=[[0,0.5],[1,0.5]];portConstraint=eastwest;" vertex="1" parent="HhnqYzRdFGTgvi9QtvTU-46">
          <mxGeometry y="78" width="140" height="26" as="geometry" />
        </mxCell>
        <mxCell id="HhnqYzRdFGTgvi9QtvTU-50" value="List" style="swimlane;fontStyle=0;childLayout=stackLayout;horizontal=1;startSize=26;fillColor=none;horizontalStack=0;resizeParent=1;resizeParentMax=0;resizeLast=0;collapsible=1;marginBottom=0;" vertex="1" parent="1">
          <mxGeometry x="527" y="515" width="140" height="104" as="geometry" />
        </mxCell>
        <mxCell id="HhnqYzRdFGTgvi9QtvTU-51" value="Item 1" style="text;strokeColor=none;fillColor=none;align=left;verticalAlign=top;spacingLeft=4;spacingRight=4;overflow=hidden;rotatable=0;points=[[0,0.5],[1,0.5]];portConstraint=eastwest;" vertex="1" parent="HhnqYzRdFGTgvi9QtvTU-50">
          <mxGeometry y="26" width="140" height="26" as="geometry" />
        </mxCell>
        <mxCell id="HhnqYzRdFGTgvi9QtvTU-52" value="Item 2" style="text;strokeColor=none;fillColor=none;align=left;verticalAlign=top;spacingLeft=4;spacingRight=4;overflow=hidden;rotatable=0;points=[[0,0.5],[1,0.5]];portConstraint=eastwest;" vertex="1" parent="HhnqYzRdFGTgvi9QtvTU-50">
          <mxGeometry y="52" width="140" height="26" as="geometry" />
        </mxCell>
        <mxCell id="HhnqYzRdFGTgvi9QtvTU-53" value="Item 3" style="text;strokeColor=none;fillColor=none;align=left;verticalAlign=top;spacingLeft=4;spacingRight=4;overflow=hidden;rotatable=0;points=[[0,0.5],[1,0.5]];portConstraint=eastwest;" vertex="1" parent="HhnqYzRdFGTgvi9QtvTU-50">
          <mxGeometry y="78" width="140" height="26" as="geometry" />
        </mxCell>
        <mxCell id="HhnqYzRdFGTgvi9QtvTU-89" value="Row 3" style="shape=partialRectangle;connectable=0;fillColor=none;top=0;left=0;bottom=0;right=0;align=left;spacingLeft=6;overflow=hidden;" vertex="1" parent="1">
          <mxGeometry x="663.3499755859375" y="282" width="148.6500244140625" height="30" as="geometry" />
        </mxCell>
        <mxCell id="HhnqYzRdFGTgvi9QtvTU-95" value="teacher" style="swimlane;fontStyle=0;childLayout=stackLayout;horizontal=1;startSize=26;fillColor=none;horizontalStack=0;resizeParent=1;resizeParentMax=0;resizeLast=0;collapsible=1;marginBottom=0;" vertex="1" parent="1">
          <mxGeometry x="280" y="128" width="217" height="182" as="geometry">
            <mxRectangle x="25" y="135" width="45" height="26" as="alternateBounds" />
          </mxGeometry>
        </mxCell>
        <mxCell id="HhnqYzRdFGTgvi9QtvTU-96" value="teacher_id           int (20) primary key" style="text;strokeColor=none;fillColor=none;align=left;verticalAlign=top;spacingLeft=4;spacingRight=4;overflow=hidden;rotatable=0;points=[[0,0.5],[1,0.5]];portConstraint=eastwest;" vertex="1" parent="HhnqYzRdFGTgvi9QtvTU-95">
          <mxGeometry y="26" width="217" height="26" as="geometry" />
        </mxCell>
        <mxCell id="HhnqYzRdFGTgvi9QtvTU-97" value="teacher_name     varchar(255)" style="text;strokeColor=none;fillColor=none;align=left;verticalAlign=top;spacingLeft=4;spacingRight=4;overflow=hidden;rotatable=0;points=[[0,0.5],[1,0.5]];portConstraint=eastwest;" vertex="1" parent="HhnqYzRdFGTgvi9QtvTU-95">
          <mxGeometry y="52" width="217" height="26" as="geometry" />
        </mxCell>
        <mxCell id="HhnqYzRdFGTgvi9QtvTU-98" value="teacher_account  varchar(255)" style="text;strokeColor=none;fillColor=none;align=left;verticalAlign=top;spacingLeft=4;spacingRight=4;overflow=hidden;rotatable=0;points=[[0,0.5],[1,0.5]];portConstraint=eastwest;" vertex="1" parent="HhnqYzRdFGTgvi9QtvTU-95">
          <mxGeometry y="78" width="217" height="26" as="geometry" />
        </mxCell>
        <mxCell id="HhnqYzRdFGTgvi9QtvTU-99" value="teacher_power     varchar(255)" style="text;strokeColor=none;fillColor=none;align=left;verticalAlign=top;spacingLeft=4;spacingRight=4;overflow=hidden;rotatable=0;points=[[0,0.5],[1,0.5]];portConstraint=eastwest;" vertex="1" parent="HhnqYzRdFGTgvi9QtvTU-95">
          <mxGeometry y="104" width="217" height="26" as="geometry" />
        </mxCell>
        <mxCell id="HhnqYzRdFGTgvi9QtvTU-100" value="teacher_email      varchar(255)" style="text;strokeColor=none;fillColor=none;align=left;verticalAlign=top;spacingLeft=4;spacingRight=4;overflow=hidden;rotatable=0;points=[[0,0.5],[1,0.5]];portConstraint=eastwest;" vertex="1" parent="HhnqYzRdFGTgvi9QtvTU-95">
          <mxGeometry y="130" width="217" height="26" as="geometry" />
        </mxCell>
        <mxCell id="HhnqYzRdFGTgvi9QtvTU-101" value="teacher_pwd        varchar(255)" style="text;strokeColor=none;fillColor=none;align=left;verticalAlign=top;spacingLeft=4;spacingRight=4;overflow=hidden;rotatable=0;points=[[0,0.5],[1,0.5]];portConstraint=eastwest;" vertex="1" parent="HhnqYzRdFGTgvi9QtvTU-95">
          <mxGeometry y="156" width="217" height="26" as="geometry" />
        </mxCell>
      </root>
    </mxGraphModel>
  </diagram>
</mxfile>
